<svg id="Ebene_1" data-name="Ebene 1" xmlns="http://www.w3.org/2000/svg" viewBox="0 0 841.89 595.28"><defs><style>.cls-1{fill:#4d726a;}.cls-2{fill:#85b128;}</style></defs><title>Zeichenfläche 1</title><path class="cls-1" d="M594.73,280.5v27.8L615.82,292V264.14Zm-42.19-43.05V308.3L531.45,292V221.09l-21.09,16.36V308.3l21.09,16.33,21.1-16.33,21.09,16.33,21.09-16.33L573.64,292V221.09Z"/><polygon class="cls-2" points="594.73 237.45 594.73 265.23 615.82 248.88 615.82 221.09 594.73 237.45"/><path class="cls-1" d="M207.85,226.55H203c-.4,0-.53.17-.53.48V248.4c0,.31-.13.44-.4.44h-5.24a.39.39,0,0,1-.44-.44V227c0-.31-.09-.48-.49-.48h-4.84c-.27,0-.44-.09-.44-.4v-4.63a.4.4,0,0,1,.44-.44h16.78a.39.39,0,0,1,.4.44v4.63c0,.31-.13.4-.4.4"/><path class="cls-1" d="M221.24,249.33h-1.41a8.75,8.75,0,0,1-6.83-2.82,10.06,10.06,0,0,1-1.45-2,.76.76,0,0,1,.13-1.06l4.36-2.2c.27-.13.53,0,.66.35a3.12,3.12,0,0,0,3.13,2.25h1.1c1.59,0,3-.79,3-2.6,0-2.2-2.3-2.77-4.94-3.83-4.05-1.63-7.31-3.53-7.31-8.6s3.39-8.24,8.9-8.24h.66a9,9,0,0,1,8.28,4.85.76.76,0,0,1-.13,1.06l-4.36,2.2c-.26.13-.53.05-.66-.35a3.14,3.14,0,0,0-3.13-2.25h-.66a2.59,2.59,0,0,0-2.73,2.65c0,2,2.6,2.64,5,3.56,4.19,1.64,7.22,3.71,7.22,8.86,0,5-3.25,8.2-8.85,8.2"/><path class="cls-1" d="M246.39,248.54a.46.46,0,0,1-.44.3H242a.46.46,0,0,1-.44-.3l-8.68-26.88c-.13-.36,0-.58.45-.58h5.59c.26,0,.4.09.44.31l3.92,13.92a22.13,22.13,0,0,1,.62,2.87h.18c.13-.71.35-1.89.61-2.82l3.84-14c0-.22.17-.31.44-.31h5.64a.41.41,0,0,1,.44.58Z"/><path class="cls-1" d="M290.52,248.49a.42.42,0,0,1-.44.35H286a.35.35,0,0,1-.4-.31l-3.57-13.17-.53-2.51h-.17s-.45,2.33-.49,2.51l-3.52,13.17c-.05.23-.18.31-.44.31h-4.06a.42.42,0,0,1-.44-.35l-6.13-27c-.08-.31.14-.44.45-.44h5.64a.43.43,0,0,1,.44.36l2.42,13.13.44,3h.18l.44-3,3.21-13.13c.05-.23.18-.36.36-.36h3.3c.18,0,.31.13.36.36l3.12,13.08.45,2.82h.17s.35-2.64.4-2.86l2.46-13a.39.39,0,0,1,.4-.36h5.69c.3,0,.53.13.44.44Z"/><path class="cls-1" d="M307.16,248.84h-5.24a.4.4,0,0,1-.45-.44V221.52a.4.4,0,0,1,.45-.44h5.24a.42.42,0,0,1,.48.44V248.4c0,.31-.17.44-.48.44"/><path class="cls-1" d="M332.58,248.84H315.75a.39.39,0,0,1-.44-.44V221.52a.39.39,0,0,1,.44-.44H321a.39.39,0,0,1,.43.44v21.37c0,.31.14.44.49.44h10.62a.4.4,0,0,1,.44.45v4.62c0,.31-.13.44-.44.44"/><path class="cls-1" d="M355.57,248.84H338.74a.39.39,0,0,1-.44-.44V221.52a.39.39,0,0,1,.44-.44H344a.39.39,0,0,1,.44.44v21.37c0,.31.14.44.49.44h10.62a.4.4,0,0,1,.44.45v4.62c0,.31-.13.44-.44.44"/><path class="cls-1" d="M368.6,249.33h-1.41a8.75,8.75,0,0,1-6.83-2.82,11,11,0,0,1-1.46-2,.77.77,0,0,1,.14-1.06l4.36-2.2c.26-.13.53,0,.66.35a3.12,3.12,0,0,0,3.13,2.25h1.1c1.59,0,3-.79,3-2.6,0-2.2-2.3-2.77-4.94-3.83-4.05-1.63-7.31-3.53-7.31-8.6s3.39-8.24,8.9-8.24h.66a8.89,8.89,0,0,1,7,3,9.37,9.37,0,0,1,1.33,1.89.77.77,0,0,1-.14,1.06l-4.36,2.2c-.27.13-.53.05-.66-.35a3.14,3.14,0,0,0-3.13-2.25h-.66a2.59,2.59,0,0,0-2.73,2.65c0,2,2.6,2.64,5,3.56,4.19,1.64,7.23,3.71,7.23,8.86,0,5-3.27,8.2-8.86,8.2"/><path class="cls-1" d="M397.85,239.81a2.57,2.57,0,0,0-2.73-2.51h-4.81a.42.42,0,0,0-.48.48v5.11c0,.31.13.44.48.44h4.81a2.62,2.62,0,0,0,2.73-2.51Zm0-10.71a2.6,2.6,0,0,0-2.73-2.55h-4.81c-.35,0-.48.17-.48.48v4.72a.42.42,0,0,0,.48.48h4.81a2.54,2.54,0,0,0,2.73-2.51Zm-2.73,19.74h-11a.4.4,0,0,1-.44-.44V221.52a.4.4,0,0,1,.44-.44h11c5.51,0,8.81,2.91,8.81,8v.84a5.87,5.87,0,0,1-2.47,4.58c-.26.22-.31.35,0,.58a6.18,6.18,0,0,1,2.47,4.71v.92c0,4.85-3.26,8.11-8.81,8.11"/><path class="cls-1" d="M419.82,235.27a28.63,28.63,0,0,1-.79-4.71h-.18a30,30,0,0,1-.88,4.71l-.92,3.57c-.09.26.09.53.53.53h2.68c.4,0,.57-.27.49-.53Zm9.74,13.57H424a.4.4,0,0,1-.45-.3l-1.23-4c-.09-.22-.18-.27-.48-.27H416c-.31,0-.4.05-.49.27l-1.27,4c-.09.22-.18.3-.4.3h-5.55c-.4,0-.58-.22-.44-.57l8.68-26.88a.39.39,0,0,1,.44-.31h3.92a.43.43,0,0,1,.44.31L430,248.27c.13.35,0,.57-.44.57"/><path class="cls-1" d="M451.45,247.48a8.56,8.56,0,0,1-5.78,1.85h-2.55c-5.46,0-8.86-3.26-8.86-8V228.57c0-4.76,3.4-8,8.86-8h2.55a8.28,8.28,0,0,1,6.44,2.43,13.58,13.58,0,0,1,2,3,.52.52,0,0,1-.18.75l-4.58,2.16a.52.52,0,0,1-.71-.27c-.84-1.76-1.94-2.55-3.17-2.55h-2.38a2.63,2.63,0,0,0-2.77,2.55v12.74a2.63,2.63,0,0,0,2.77,2.55h2.38c1.23,0,2.33-.83,3.17-2.6a.53.53,0,0,1,.71-.26l4.58,2.2c.31.14.31.4.18.66a11.76,11.76,0,0,1-2.69,3.62"/><path class="cls-1" d="M480.25,248.84h-5.2a.4.4,0,0,1-.44-.44V238c0-.31-.13-.44-.48-.44h-7.67c-.35,0-.48.13-.48.44V248.4a.4.4,0,0,1-.44.44h-5.29a.4.4,0,0,1-.44-.44V221.52a.4.4,0,0,1,.44-.44h5.29a.41.41,0,0,1,.44.44v10c0,.31.13.44.48.44h7.67c.35,0,.48-.13.48-.44v-10a.4.4,0,0,1,.44-.44h5.2c.31,0,.4.13.4.44V248.4c0,.31-.09.44-.4.44"/><path class="cls-2" d="M313.9,292h-3.1c-.31,0-.44-.13-.44-.44V280c0-.31-.14-.44-.45-.44h-9.07c-.3,0-.44.13-.44.44v11.5c0,.31-.13.44-.44.44h-3.09c-.31,0-.45-.13-.45-.44v-27c0-.31.14-.44.45-.44H300c.31,0,.44.13.44.44v11.06a.38.38,0,0,0,.44.44h9.07c.31,0,.45-.14.45-.44V264.55c0-.31.13-.44.44-.44h3.1c.3,0,.44.13.44.44v27c0,.31-.14.44-.44.44"/><path class="cls-2" d="M332.33,280.6l-1.91-7.47c-.09-.35-.44-1.6-.53-1.95h-.17c-.09.35-.45,1.68-.53,2l-1.91,7.26a10.15,10.15,0,0,0-.31,1.19c0,.22.18.4.49.4h4.64c.31,0,.49-.18.49-.4a7.07,7.07,0,0,0-.26-1m6.9,11.37h-3.32a.4.4,0,0,1-.45-.31l-1.63-5.84c-.05-.22-.22-.26-.44-.26h-7.17c-.22,0-.4,0-.44.26l-1.64,5.84a.39.39,0,0,1-.44.31h-3.32c-.31,0-.49-.13-.49-.35a10.94,10.94,0,0,1,.45-1.51l7.83-25.69c0-.23.22-.31.44-.31H331c.22,0,.4.08.44.31l7.87,25.83a8.73,8.73,0,0,1,.4,1.37c0,.22-.18.35-.48.35"/><path class="cls-2" d="M362.75,292h-2.84a.48.48,0,0,1-.4-.22l-9.42-17.12c-.17-.31-.66-1.24-.79-1.59l-.18,0c.09,1.07.13,6.77.13,10.27v8.18c0,.31-.13.44-.44.44h-3.1c-.3,0-.44-.13-.44-.44v-27c0-.31.14-.44.44-.44h2.83a.44.44,0,0,1,.4.22l9.43,17.16c.13.22.66,1.24.79,1.59l.18,0c-.09-1.07-.13-6.77-.13-10.26v-8.23c0-.31.13-.44.44-.44h3.1c.3,0,.44.13.44.44v27c0,.31-.14.44-.44.44"/><path class="cls-2" d="M385.29,271.62a4,4,0,0,0-4-4h-4.87c-.31,0-.44.14-.44.45V288c0,.31.13.44.44.44h4.87a4,4,0,0,0,4-4Zm-4,20.35h-8.85c-.31,0-.44-.13-.44-.44v-27c0-.31.13-.44.44-.44h8.85c4.86,0,8,3.09,8,8V284c0,4.91-3.1,8-8,8"/><path class="cls-2" d="M409.56,283.57a4,4,0,0,0-4-4h-4.86c-.31,0-.44.13-.44.44v8c0,.31.13.44.44.44h4.86a4,4,0,0,0,4-4Zm0-11.95a4,4,0,0,0-4-4h-4.86c-.31,0-.44.14-.44.45v7.52c0,.3.13.44.44.44h4.86a4,4,0,0,0,4-4Zm-4,20.35h-8.84c-.31,0-.44-.13-.44-.44v-27c0-.31.13-.44.44-.44h8.84c4.87,0,8,3.09,8,8v.44a7.06,7.06,0,0,1-2.79,5,.36.36,0,0,0-.22.35c0,.13.09.22.22.36a7.67,7.67,0,0,1,2.79,5.21v.67c0,4.86-3.1,7.87-8,7.87"/><path class="cls-2" d="M430.16,280.6l-1.9-7.47c-.09-.35-.45-1.6-.53-1.95h-.18c-.09.35-.44,1.68-.53,2l-1.9,7.26a8.88,8.88,0,0,0-.32,1.19c0,.22.18.4.49.4h4.65c.31,0,.48-.18.48-.4a7.07,7.07,0,0,0-.26-1m6.9,11.37h-3.32a.39.39,0,0,1-.44-.31l-1.64-5.84c0-.22-.22-.26-.44-.26h-7.16c-.23,0-.41,0-.45.26L422,291.66a.39.39,0,0,1-.44.31h-3.32c-.3,0-.48-.13-.48-.35a10.42,10.42,0,0,1,.44-1.51L426,264.42c0-.23.22-.31.44-.31h2.39c.22,0,.4.08.44.31l7.88,25.83a9.6,9.6,0,0,1,.39,1.37c0,.22-.17.35-.48.35"/><path class="cls-2" d="M458.59,292h-15c-.31,0-.44-.13-.44-.44v-27c0-.31.13-.44.44-.44h3.09c.32,0,.45.13.45.44V288c0,.31.13.44.44.44h11.06c.3,0,.44.14.44.45v2.65c0,.31-.14.44-.44.44"/><path class="cls-2" d="M480.21,292h-15c-.31,0-.44-.13-.44-.44v-27c0-.31.13-.44.44-.44h3.09c.31,0,.45.13.45.44V288c0,.31.13.44.44.44h11.06c.31,0,.44.14.44.45v2.65c0,.31-.13.44-.44.44"/></svg>