<svg id="Ebene_1" data-name="Ebene 1" xmlns="http://www.w3.org/2000/svg" viewBox="0 0 841.89 595.28"><defs><style>.cls-1{fill:#0c505d;}.cls-2{fill:#b3ce4d;}</style></defs><title>Zeichenfläche 1</title><path class="cls-1" d="M692.43,309v39.46l29.93-23.17V285.75Zm-59.86-61.09V348.41l-29.93-23.18V224.66l-29.93,23.2V348.41l29.93,23.17,29.93-23.17,29.93,23.17,29.93-23.17L662.5,325.23V224.66Z"/><polygon class="cls-2" points="692.43 247.87 692.43 287.3 722.36 264.1 722.36 224.66 692.43 247.87"/><path class="cls-1" d="M143.43,232.4h-6.87c-.57,0-.75.25-.75.69v30.32c0,.44-.19.63-.57.63H127.8a.56.56,0,0,1-.62-.63V233.09c0-.44-.13-.69-.69-.69h-6.88c-.37,0-.62-.13-.62-.57v-6.56a.56.56,0,0,1,.62-.63h23.82a.55.55,0,0,1,.57.63v6.56c0,.44-.19.57-.57.57"/><path class="cls-1" d="M162.43,264.73h-2a12.37,12.37,0,0,1-9.69-4,15,15,0,0,1-2.07-2.87,1.09,1.09,0,0,1,.19-1.5l6.19-3.13c.38-.19.75-.06.94.5a4.44,4.44,0,0,0,4.44,3.19H162c2.25,0,4.25-1.13,4.25-3.69,0-3.13-3.25-3.94-7-5.44-5.75-2.31-10.38-5-10.38-12.19s4.81-11.7,12.63-11.7h.94a12.62,12.62,0,0,1,9.88,4.19,13.57,13.57,0,0,1,1.88,2.69,1.09,1.09,0,0,1-.19,1.5l-6.19,3.13c-.38.19-.75.06-.94-.5a4.44,4.44,0,0,0-4.44-3.19h-.94a3.67,3.67,0,0,0-3.87,3.75c0,2.82,3.68,3.75,7.12,5.06,5.95,2.32,10.26,5.26,10.26,12.58,0,7.06-4.63,11.63-12.57,11.63"/><path class="cls-1" d="M198.12,263.6a.67.67,0,0,1-.63.44h-5.56a.67.67,0,0,1-.63-.44L179,225.46c-.18-.51.07-.82.63-.82h7.94c.37,0,.56.13.63.44l5.56,19.76a33.67,33.67,0,0,1,.88,4.07h.25c.19-1,.5-2.69.87-4l5.44-19.82c.07-.31.25-.44.63-.44h8a.59.59,0,0,1,.63.82Z"/><path class="cls-1" d="M260.74,263.54a.61.61,0,0,1-.62.5h-5.75a.51.51,0,0,1-.57-.44l-5.06-18.7c-.06-.25-.75-3.56-.75-3.56h-.25s-.63,3.31-.69,3.56l-5,18.7c-.07.31-.25.44-.63.44h-5.75a.62.62,0,0,1-.63-.5l-8.69-38.27c-.12-.44.19-.63.63-.63h8a.62.62,0,0,1,.63.5l3.44,18.64.62,4.25h.25l.63-4.25,4.56-18.64c.07-.31.25-.5.5-.5h4.69c.25,0,.44.19.5.5l4.44,18.58.63,4h.25s.5-3.76.56-4.07l3.5-18.51a.55.55,0,0,1,.56-.5h8.07c.44,0,.75.19.63.63Z"/><path class="cls-1" d="M284.36,264h-7.44a.56.56,0,0,1-.63-.63V225.27a.56.56,0,0,1,.63-.63h7.44a.61.61,0,0,1,.68.63v38.14c0,.44-.25.63-.68.63"/><path class="cls-1" d="M320.43,264H296.54a.56.56,0,0,1-.62-.63V225.27a.56.56,0,0,1,.62-.63h7.51a.56.56,0,0,1,.62.63v30.32c0,.44.19.63.69.63h15.07a.57.57,0,0,1,.63.63v6.56c0,.44-.2.63-.63.63"/><path class="cls-1" d="M353.05,264H329.17a.56.56,0,0,1-.63-.63V225.27a.56.56,0,0,1,.63-.63h7.5a.56.56,0,0,1,.62.63v30.32c0,.44.19.63.69.63h15.07a.56.56,0,0,1,.62.63v6.56c0,.44-.18.63-.62.63"/><path class="cls-1" d="M371.54,264.73h-2a12.37,12.37,0,0,1-9.69-4,15.47,15.47,0,0,1-2.07-2.87,1.09,1.09,0,0,1,.19-1.5l6.19-3.13c.38-.19.75-.06.94.5a4.44,4.44,0,0,0,4.44,3.19h1.56c2.25,0,4.25-1.13,4.25-3.69,0-3.13-3.25-3.94-7-5.44-5.75-2.31-10.38-5-10.38-12.19s4.82-11.7,12.63-11.7h.94a12.62,12.62,0,0,1,9.88,4.19,13.17,13.17,0,0,1,1.88,2.69,1.08,1.08,0,0,1-.19,1.5l-6.19,3.13c-.38.19-.75.06-.94-.5a4.44,4.44,0,0,0-4.44-3.19h-.94a3.67,3.67,0,0,0-3.87,3.75c0,2.82,3.68,3.75,7.12,5.06,5.95,2.32,10.26,5.26,10.26,12.58,0,7.06-4.63,11.63-12.57,11.63"/><path class="cls-1" d="M413.05,251.22a3.65,3.65,0,0,0-3.88-3.57h-6.82a.6.6,0,0,0-.69.69v7.25c0,.44.19.63.69.63h6.82a3.72,3.72,0,0,0,3.88-3.56Zm0-15.2a3.69,3.69,0,0,0-3.88-3.62h-6.82c-.5,0-.69.25-.69.68v6.69a.6.6,0,0,0,.69.69h6.82a3.61,3.61,0,0,0,3.88-3.56Zm-3.88,28H393.54a.56.56,0,0,1-.63-.63V225.27a.56.56,0,0,1,.63-.63h15.63c7.82,0,12.5,4.13,12.5,11.38v1.19a8.34,8.34,0,0,1-3.5,6.5c-.37.32-.43.5,0,.82a8.8,8.8,0,0,1,3.5,6.69v1.31c0,6.88-4.62,11.51-12.5,11.51"/><path class="cls-1" d="M444.23,244.78a40.54,40.54,0,0,1-1.13-6.69h-.25a41.18,41.18,0,0,1-1.25,6.69l-1.31,5.06c-.13.38.13.75.75.75h3.81c.57,0,.82-.37.69-.75ZM458.05,264h-7.94a.57.57,0,0,1-.63-.44l-1.75-5.69c-.12-.31-.25-.38-.69-.38h-8.25c-.44,0-.57.07-.69.38l-1.81,5.69c-.13.31-.25.44-.56.44h-7.89c-.56,0-.81-.32-.62-.82l12.32-38.14a.56.56,0,0,1,.62-.44h5.57a.6.6,0,0,1,.62.44l12.32,38.14c.19.5,0,.82-.62.82"/><path class="cls-1" d="M489.11,262.1a12.15,12.15,0,0,1-8.2,2.63h-3.62c-7.75,0-12.57-4.63-12.57-11.39V235.27c0-6.75,4.82-11.38,12.57-11.38h3.62c4.13,0,7,1.19,9.13,3.44a19.23,19.23,0,0,1,2.88,4.19c.19.38.19.88-.25,1.06l-6.5,3.07a.73.73,0,0,1-1-.38c-1.19-2.5-2.76-3.62-4.5-3.62h-3.38a3.74,3.74,0,0,0-3.94,3.62v18.07a3.75,3.75,0,0,0,3.94,3.63h3.38c1.74,0,3.31-1.19,4.5-3.69a.73.73,0,0,1,1-.37l6.5,3.12c.44.19.44.57.25.94a16.4,16.4,0,0,1-3.81,5.13"/><path class="cls-1" d="M530,264h-7.38a.56.56,0,0,1-.63-.63V248.59c0-.44-.19-.62-.69-.62H510.41c-.5,0-.69.18-.69.62v14.82a.56.56,0,0,1-.62.63h-7.5a.56.56,0,0,1-.63-.63V225.27a.56.56,0,0,1,.63-.63h7.5a.59.59,0,0,1,.62.63v14.26c0,.43.19.62.69.62h10.88c.5,0,.69-.19.69-.62V225.27a.56.56,0,0,1,.63-.63H530c.43,0,.56.19.56.63v38.14c0,.44-.13.63-.56.63"/><path class="cls-2" d="M293.91,325.24h-4.39c-.44,0-.63-.19-.63-.63V308.29c0-.44-.19-.63-.63-.63H275.39c-.43,0-.62.19-.62.63v16.32c0,.44-.19.63-.63.63h-4.39c-.44,0-.63-.19-.63-.63V286.32c0-.44.19-.63.63-.63h4.39c.44,0,.63.19.63.63V302c0,.44.19.63.62.63h12.87c.44,0,.63-.19.63-.63V286.32c0-.44.19-.63.63-.63h4.39c.44,0,.63.19.63.63v38.29c0,.44-.19.63-.63.63"/><path class="cls-2" d="M320.07,309.1l-2.7-10.6c-.13-.5-.63-2.26-.76-2.76h-.25c-.12.5-.63,2.38-.75,2.82l-2.7,10.29a13.84,13.84,0,0,0-.44,1.7c0,.31.25.56.69.56h6.59c.44,0,.69-.25.69-.56a11.15,11.15,0,0,0-.37-1.45m9.79,16.14h-4.71a.57.57,0,0,1-.63-.44l-2.32-8.29c-.06-.31-.31-.38-.63-.38H311.4c-.31,0-.56.07-.63.38l-2.32,8.29a.56.56,0,0,1-.62.44h-4.71c-.44,0-.69-.19-.69-.5a13.56,13.56,0,0,1,.63-2.14l11.11-36.47a.56.56,0,0,1,.62-.44h3.39a.57.57,0,0,1,.63.44L330,322.79a12.91,12.91,0,0,1,.57,1.95c0,.31-.25.5-.69.5"/><path class="cls-2" d="M363.23,325.24h-4a.65.65,0,0,1-.57-.32l-13.37-24.29c-.25-.44-.94-1.76-1.13-2.26l-.25.06c.12,1.51.19,9.61.19,14.57v11.61c0,.44-.19.63-.63.63h-4.39c-.44,0-.63-.19-.63-.63V286.32c0-.44.19-.63.63-.63h4a.66.66,0,0,1,.57.32L357,310.36c.19.32.94,1.76,1.13,2.26l.25-.06c-.13-1.51-.19-9.61-.19-14.56V286.32c0-.44.19-.63.63-.63h4.39c.44,0,.63.19.63.63v38.29c0,.44-.19.63-.63.63"/><path class="cls-2" d="M395.22,296.36a5.71,5.71,0,0,0-5.65-5.65h-6.9c-.44,0-.63.19-.63.63v28.25c0,.44.19.62.63.62h6.9a5.7,5.7,0,0,0,5.65-5.64Zm-5.65,28.88H377c-.43,0-.62-.19-.62-.63V286.32c0-.44.19-.63.62-.63h12.56c6.91,0,11.3,4.4,11.3,11.3v16.95c0,7-4.39,11.3-11.3,11.3"/><path class="cls-2" d="M429.66,313.31a5.71,5.71,0,0,0-5.65-5.65h-6.9c-.44,0-.63.19-.63.63v11.3c0,.44.19.62.63.62H424a5.7,5.7,0,0,0,5.65-5.64Zm0-16.95a5.71,5.71,0,0,0-5.65-5.65h-6.9c-.44,0-.63.19-.63.63V302c0,.44.19.63.63.63H424a5.7,5.7,0,0,0,5.65-5.65ZM424,325.24H411.46c-.44,0-.63-.19-.63-.63V286.32c0-.44.19-.63.63-.63H424c6.91,0,11.3,4.4,11.3,11.3v.63a10,10,0,0,1-4,7.09.52.52,0,0,0-.31.5c0,.19.13.32.31.51,2,1.5,4,4.89,4,7.4v.94c0,6.91-4.39,11.18-11.3,11.18"/><path class="cls-2" d="M458.9,309.1l-2.7-10.6c-.13-.5-.63-2.26-.76-2.76h-.25c-.12.5-.63,2.38-.75,2.82l-2.7,10.29a13.84,13.84,0,0,0-.44,1.7c0,.31.25.56.69.56h6.59c.44,0,.69-.25.69-.56a11.15,11.15,0,0,0-.37-1.45m9.79,16.14H464a.58.58,0,0,1-.63-.44L461,316.51c-.06-.31-.31-.38-.63-.38H450.24c-.32,0-.57.07-.63.38l-2.33,8.29a.56.56,0,0,1-.62.44H442c-.44,0-.69-.19-.69-.5a13.56,13.56,0,0,1,.63-2.14L453,286.13a.56.56,0,0,1,.62-.44H457a.57.57,0,0,1,.63.44l11.17,36.66a11.8,11.8,0,0,1,.57,1.95c0,.31-.25.5-.69.5"/><path class="cls-2" d="M499.24,325.24H477.9c-.44,0-.63-.19-.63-.63V286.32c0-.44.19-.63.63-.63h4.39c.44,0,.63.19.63.63v33.27c0,.44.19.62.63.62h15.69c.44,0,.63.19.63.63v3.77c0,.44-.19.63-.63.63"/><path class="cls-2" d="M529.92,325.24H508.58c-.44,0-.63-.19-.63-.63V286.32c0-.44.19-.63.63-.63H513c.44,0,.63.19.63.63v33.27c0,.44.19.62.63.62h15.69c.44,0,.63.19.63.63v3.77c0,.44-.19.63-.63.63"/></svg>