<svg version="1" xmlns="http://www.w3.org/2000/svg" width="1122.667" height="1122.667" viewBox="0 0 842.000000 842.000000"><path d="M434 218.5c-.3.5-4 3.7-8.3 7-4.4 3.3-11.4 8.7-15.6 12-4.3 3.3-11.6 8.9-16.2 12.4-4.6 3.6-8.6 6.7-8.9 7-.3.3-2.5 2.2-5 4.1-2.5 1.9-4.6 3.8-4.8 4.2-.2.4-.9.8-1.5.8-.7 0-2.9 1.6-5 3.4-2.1 1.9-4.3 3.6-4.9 3.8-.9.3-1.2 29.5-1.3 121.9 0 66.8.1 122.1.3 122.9.2.9 3.3 3.9 7 6.7 3.7 2.9 11.4 8.9 17.2 13.4 5.8 4.4 11.9 9.1 13.5 10.4 24.1 18.8 34.1 26.5 34.5 26.5.5 0 22.1-16.4 28-21.3.8-.7 3.3-2.6 5.5-4.2s4.2-3.2 4.5-3.5c.3-.4 2.3-1.9 4.5-3.6 2.2-1.6 5.1-3.9 6.5-5.2 1.4-1.2 2.8-2.2 3.1-2.2.3 0 1.7-.9 3-2.1 1.3-1.1 5.6-4.5 9.6-7.6 3.9-3 6.9-6 6.7-6.6-.3-.7-4.1-3.9-8.5-7.2-4.5-3.3-9-6.8-10.2-7.7-1.2-.9-6.7-5.2-12.2-9.5-5.5-4.2-10.2-8-10.5-8.3-.3-.3-2.1-1.7-4-3-3.3-2.3-13.6-10.2-22.2-17.2l-3.8-3.1-.2-122.6c-.2-67.4-.5-122.2-.8-121.6zM274.5 230.1c-7.7 6-14.7 11.5-15.5 12.2-.8.7-3.1 2.3-5 3.7-1.9 1.4-4.2 3.2-5.1 4-.9.8-3.6 3-6 4.8-2.4 1.8-8.4 6.5-13.3 10.3-4.9 3.8-9.6 7.4-10.5 7.9-1.4.7-1.5 14-1.6 123.5v122.6l7.3 5.7c4.1 3.1 12.2 9.4 18 13.9 5.9 4.6 11.2 8.6 11.7 9 .6.5 3 2.4 5.5 4.3s4.7 3.7 5 4c.3.3 4.3 3.4 9 7 9.1 6.9 9.2 7 12.9 10.1 1.4 1.1 3 1.8 3.5 1.6 2.4-1 18.4-13.6 17.9-14.1-.4-.3-.1-.6.5-.6.9 0 11.4-7.5 15.9-11.5 1.7-1.4 2.9-2.3 9.8-7.5 3.3-2.4 6.7-5 7.5-5.7 4.6-3.9 9.1-7.4 14.3-11.2 3.1-2.4 5.7-4.6 5.7-5 0-.3-6.1-5.3-13.6-11.1s-15.5-12-17.8-13.8c-2.2-1.7-4.5-3.6-5.1-4-17.3-13.1-28.1-21.7-28.3-22.4-.2-.4-.8-.8-1.3-.8s-2-1-3.3-2.1l-2.5-2.2V341.1c.1-66.8-.3-121.6-.8-121.8-.4-.1-7.1 4.8-14.8 10.8zM551.5 243.1c-17 13.3-33.1 25.8-35.7 27.7l-4.8 3.6V370.1l5.8-4.4c3.1-2.5 13.4-10.4 22.7-17.6 9.4-7.3 17.7-13.8 18.6-14.5.9-.7 6.2-4.9 11.8-9.2 5.7-4.4 11-8.5 11.9-9.2 1.5-1.2 1.7-5.6 1.7-48.7 0-26.1-.2-47.5-.5-47.5s-14.4 10.9-31.5 24.1zM572.9 375.3c-5.9 4.5-12.1 9.3-13.9 10.7-8.4 6.3-15.7 12.1-17.7 14-1.2 1.1-2.7 2-3.2 2s-1.1.4-1.3.8c-.1.5-4.1 3.7-8.8 7.2-4.7 3.6-8.7 6.7-9 7-.3.3-2.2 1.9-4.2 3.4l-3.8 2.8v95.9l5.4-4.3c2.9-2.4 7.7-6.1 10.6-8.3 2.9-2.2 5.7-4.5 6.4-5 .6-.6 4.9-3.9 9.6-7.5 4.7-3.5 10.1-7.7 12-9.2 7.7-6.2 25.5-19.8 27.4-21 .8-.5 1.1-14.3 1.1-48.8v-48s-4.8 3.7-10.6 8.3z"/></svg>