<?xml version="1.0" standalone="no"?>
<!DOCTYPE svg PUBLIC "-//W3C//DTD SVG 20010904//EN"
 "http://www.w3.org/TR/2001/REC-SVG-20010904/DTD/svg10.dtd">
<svg version="1.0" xmlns="http://www.w3.org/2000/svg"
 width="3368.000000pt" height="3368.000000pt" viewBox="0 0 3368.000000 3368.000000"
 preserveAspectRatio="xMidYMid meet">
<metadata>
Created by potrace 1.11, written by Peter Selinger 2001-2013
</metadata>
<g transform="translate(0.000000,3368.000000) scale(0.100000,-0.100000)"
fill="#000000" stroke="none">
<path d="M17535 24639 c-22 -16 -49 -38 -60 -47 -11 -9 -67 -53 -125 -97 -89
-67 -214 -164 -379 -293 -19 -15 -280 -217 -580 -450 -300 -232 -559 -433
-576 -446 -69 -55 -511 -396 -596 -461 -50 -38 -96 -75 -103 -80 -6 -6 -40
-33 -76 -60 -36 -27 -67 -52 -70 -55 -3 -3 -43 -34 -89 -69 -46 -35 -91 -69
-100 -77 -9 -7 -58 -45 -108 -85 -74 -57 -93 -77 -94 -98 0 -14 -1 -2275 -1
-5023 -1 -2749 -3 -4998 -5 -4998 -1 0 -103 78 -226 173 -122 95 -234 182
-248 192 -35 27 -190 146 -209 162 -13 11 -495 384 -575 445 -16 13 -52 41
-80 64 -28 22 -58 45 -67 50 -9 5 -33 24 -54 41 -22 18 -124 99 -229 179 -104
80 -203 157 -220 170 -16 13 -129 100 -250 193 -382 296 -533 413 -662 514
-69 54 -135 104 -145 112 -20 13 -20 58 -20 5039 0 2764 -3 5026 -7 5026 -3 0
-42 -28 -86 -63 -44 -34 -199 -155 -345 -267 -146 -113 -270 -209 -277 -215
-6 -5 -24 -20 -40 -31 -54 -41 -488 -377 -528 -409 -22 -18 -71 -56 -110 -86
-80 -61 -80 -60 -120 -92 -16 -13 -160 -125 -320 -249 -159 -123 -432 -334
-605 -468 -173 -134 -317 -246 -320 -250 -3 -3 -32 -25 -65 -49 -33 -25 -62
-47 -65 -50 -3 -4 -21 -18 -42 -33 -20 -15 -43 -34 -51 -43 -13 -13 -15 -613
-15 -5039 l0 -5025 137 -106 c75 -58 143 -112 151 -118 16 -13 164 -128 209
-162 47 -36 615 -476 646 -500 17 -13 39 -31 50 -39 11 -8 54 -42 95 -74 41
-32 206 -159 365 -282 160 -123 295 -228 300 -232 6 -5 217 -169 470 -364 253
-196 469 -363 480 -372 11 -9 36 -29 56 -44 l36 -27 164 128 c185 143 278 215
394 304 44 33 82 64 85 67 3 4 23 20 45 36 42 30 485 372 654 504 53 42 215
167 361 280 146 112 279 215 296 229 17 14 44 35 59 46 16 11 40 29 54 41 14
12 219 170 454 352 l429 332 41 -33 c23 -17 44 -34 47 -38 3 -3 52 -41 110
-85 58 -43 110 -84 115 -90 6 -5 28 -23 50 -39 22 -16 45 -34 52 -40 15 -13
19 -15 123 -95 47 -35 90 -68 95 -72 6 -4 28 -23 51 -40 46 -37 62 -50 164
-128 265 -204 326 -251 336 -259 6 -5 76 -60 155 -121 79 -61 158 -121 174
-134 63 -50 275 -213 375 -290 58 -44 112 -86 120 -93 15 -12 247 -192 304
-236 33 -25 216 -167 261 -202 17 -12 117 -91 224 -173 l195 -151 60 48 c34
26 183 141 331 256 149 115 410 317 580 449 171 132 402 311 515 399 113 87
216 167 230 177 14 11 70 55 125 98 55 43 145 113 200 154 55 42 206 159 336
260 130 101 251 194 269 208 18 14 99 77 180 140 81 63 162 126 180 140 43 33
439 339 508 393 153 119 212 165 382 296 102 78 192 147 200 154 8 7 35 28 60
47 25 19 52 40 60 47 8 7 92 71 185 143 94 72 184 141 200 154 44 35 309 240
415 321 51 39 97 75 104 80 14 13 789 613 834 645 l32 24 0 1978 0 1978 -68
-52 c-76 -59 -222 -172 -377 -293 -56 -44 -117 -91 -134 -105 -46 -34 -311
-239 -352 -272 -19 -15 -101 -79 -184 -142 -82 -64 -172 -134 -200 -155 -27
-22 -216 -168 -420 -326 -203 -158 -379 -294 -390 -303 -11 -9 -38 -30 -60
-47 -22 -16 -44 -33 -50 -38 -31 -25 -677 -525 -715 -553 l-45 -32 0 -1971 c0
-1084 -2 -1971 -5 -1971 -4 0 -61 43 -215 164 -16 13 -196 153 -400 310 -203
157 -377 292 -385 299 -9 6 -42 32 -75 57 -33 25 -62 47 -65 50 -3 3 -43 35
-90 70 -47 36 -87 67 -90 70 -3 3 -63 50 -135 105 -71 54 -132 102 -135 105
-3 3 -21 17 -40 30 -19 14 -44 32 -55 42 -11 9 -166 129 -345 267 -179 138
-332 256 -340 264 -8 7 -150 117 -315 245 l-300 231 0 5030 c0 2767 0 5031 0
5031 0 0 -18 -14 -40 -31z"/>
<path d="M22850 24119 c-382 -296 -708 -549 -724 -562 -260 -200 -365 -282
-384 -298 -12 -10 -24 -19 -26 -19 -2 0 -17 -11 -32 -24 -16 -14 -137 -108
-269 -210 -132 -102 -244 -189 -250 -194 -5 -4 -131 -102 -280 -217 -148 -114
-281 -217 -295 -229 l-25 -20 0 -1968 c0 -1082 4 -1968 8 -1968 5 0 30 17 55
38 26 20 51 40 57 44 5 4 24 18 40 31 17 13 212 165 435 337 223 173 430 333
460 357 75 59 302 235 655 508 164 127 303 235 309 240 6 6 47 37 91 70 44 33
82 62 85 65 3 3 106 84 230 180 124 95 303 234 398 307 l172 134 0 1970 c0
1083 -3 1969 -7 1969 -5 -1 -321 -244 -703 -541z"/>
</g>
</svg>
